<svg width="149" height="112" viewBox="0 0 149 112" fill="none" xmlns="http://www.w3.org/2000/svg">
    <path d="M24.5421 100.063V111.981H22.6002V100.49C22.6002 99.9491 22.3135 99.8441 22.1286 99.8441H20.8186V111.978H18.889V99.8441H18.2694V98.0586H22.7944C23.6328 98.0957 24.5421 98.4849 24.5421 100.063Z" fill="#5C6A73" />
    <path d="M27.9728 99.8441H27.2484V98.0586H29.591C29.739 98.1049 29.8654 98.2532 29.9116 98.4046L29.9239 111.978H27.9697V99.8441H27.9728Z" fill="#5C6A73" />
    <path d="M38.94 98.4046V109.365C38.94 109.998 38.8136 110.597 38.527 110.999C37.9629 111.759 37.2971 111.954 36.2645 112L33.2314 111.978V99.8441H32.6334V98.0586H34.8404C35.0007 98.1049 35.1148 98.2532 35.1733 98.4046V110.196H36.0117C36.7114 110.196 36.9642 110.035 37.0104 109.402L37.0228 99.8472H36.0456L36.2768 98.0617L38.6194 98.0493C38.7674 98.0957 38.8938 98.2439 38.94 98.4046Z" fill="#5C6A73" />
    <path d="M42.3922 99.8441H41.6678V98.0586H44.0012C44.1615 98.1049 44.2879 98.2532 44.3341 98.4046L44.3464 105.852H42.3922V99.8441Z" fill="#5C6A73" />
    <path d="M47.1206 110.183H50.0951L50.0828 99.8441H47.21V98.0586H51.7011C51.8613 98.1049 51.9877 98.2532 52.034 98.4046L52.0463 110.183H52.8292V111.978H47.1206V110.183Z" fill="#5C6A73" />
    <path d="M56.2846 111.923L58.02 99.8102H54.8944V96.7025H56.8826V98.0278H59.6506C59.7893 98.0617 59.9156 98.2007 59.9619 98.349L59.9835 99.5476L58.2142 111.981H56.2846V111.923Z" fill="#5C6A73" />
    <path d="M71.9216 111.981V99.8473H70.0382L70.2787 110.153L70.2571 111.985H67.2117V110.177H68.3491L68.1549 100.539L68.6604 99.8473H67.5446V98.0618H73.5306C73.6909 98.1081 73.8173 98.2564 73.8635 98.4078L73.8851 111.981H71.9216Z" fill="#5C6A73" />
    <path d="M77.4083 99.8441H76.684V98.0586H79.0266C79.1745 98.1049 79.3009 98.2532 79.3471 98.4046L79.3595 111.978H77.4052V99.8441H77.4083Z" fill="#5C6A73" />
    <path d="M82.8148 99.8441H82.0905V98.0586H84.4238C84.5841 98.1049 84.7105 98.2532 84.7567 98.4046L84.7691 105.852H82.8148V99.8441Z" fill="#5C6A73" />
    <path d="M89.8766 111.981L89.5561 110.394L88.6714 111.981H87.2812V110.116L88.246 110.094C88.4649 110.072 88.6128 110.026 88.7392 109.887C88.8872 109.714 89.1399 109.359 89.3711 109.013L88.7855 99.8473H87.6604V98.0618H90.2465C90.4068 98.1081 90.5332 98.2564 90.5794 98.4078L91.4764 111.981H89.8766Z" fill="#5C6A73" />
    <path d="M94.6512 99.8441H93.9269V98.0586H96.2695C96.4175 98.1049 96.5438 98.2532 96.5901 98.4046L96.6024 111.978H94.6482V99.8441H94.6512Z" fill="#5C6A73" />
    <path d="M100.699 111.923L102.434 99.8102H99.3087V96.7025H101.297V98.0278H104.065C104.204 98.0617 104.33 98.2007 104.376 98.349L104.398 99.5476L102.628 111.981H100.699V111.923Z" fill="#5C6A73" />
    <path d="M107.6 99.8441H106.876V98.0586H109.219C109.367 98.1049 109.493 98.2532 109.539 98.4046L109.551 111.978H107.597V99.8441H107.6Z" fill="#5C6A73" />
    <path d="M112.341 110.183H113.238C113.423 110.183 113.571 110.137 113.571 109.862V99.8348H112.421V98.0493H115.155C115.316 98.0957 115.43 98.2439 115.488 98.3953V110.542C115.488 111.614 114.81 111.981 114.064 111.981H112.341V110.183Z" fill="#5C6A73" />
    <path d="M118.309 111.981V110.187L120.318 110.199C120.938 110.199 121.203 110.06 121.237 109.498V99.8503H118.309V98.0648H122.88C123.04 98.0988 123.166 98.2502 123.213 98.4108V109.569C123.213 110.282 123.086 110.814 122.8 111.203C122.387 111.768 121.767 111.984 121.169 111.997L118.309 111.981Z" fill="#5C6A73" />
    <path d="M132.216 98.4046V109.365C132.216 109.998 132.09 110.597 131.803 110.999C131.239 111.759 130.573 111.954 129.541 112L126.508 111.978V99.8441H125.91V98.0586H128.117C128.277 98.1049 128.391 98.2532 128.45 98.4046V110.196H129.288C129.988 110.196 130.241 110.035 130.287 109.402L130.299 99.8472H129.322L129.553 98.0617L131.896 98.0493C132.047 98.0957 132.173 98.2439 132.216 98.4046Z" fill="#5C6A73" />
    <path d="M39.5194 29.5074H14.0649L61.7465 53.3989L74.4738 47.0229L39.5194 29.5074Z" fill="#1D3557" />
    <path d="M14.0649 90.1196H39.5194L74.4738 72.6041L61.7465 66.2281L14.0649 90.1196Z" fill="#1D3557" />
    <path d="M74.5446 59.812L74.4738 59.8491L87.201 66.2281L99.9991 59.812L87.201 53.3989L74.4738 59.778L74.5446 59.812Z" fill="#1D3557" />
    <path d="M134.883 29.5074H109.428L74.4738 47.0229L87.201 53.3989L134.883 29.5074Z" fill="#9EB4C1" />
    <path d="M74.403 59.812L74.4739 59.778L61.7466 53.3989L48.9454 59.812L61.7466 66.2281L74.4739 59.8491L74.403 59.812Z" fill="#9EB4C1" />
    <path d="M74.4738 72.6041L109.428 90.1196H134.883L87.201 66.2281L74.4738 72.6041Z" fill="#9EB4C1" />
    <path d="M74.4738 59.8491L61.7466 66.2282L74.4738 72.6042L87.201 66.2282L74.4738 59.8491Z" fill="#9EB4C1" />
    <path d="M87.201 53.3989L74.4738 47.0229L61.7466 53.3989L74.4738 59.778L87.201 53.3989Z" fill="#1D3557" />
    <path d="M0 0.00317383H14.6075V4.23839H9.79894V18.5875H14.6075V22.8227H0V18.5875H4.80854V4.23839H0V0.00317383Z" fill="#1D3557" />
    <path d="M23.9718 22.8196H19.0153V3.98196H23.3491L23.7498 6.2463C26.0462 4.3125 28.5584 3.43518 30.9256 3.43518C33.8385 3.43518 36.3168 4.34648 38.2833 6.2463V22.8226H33.3299V9.3478C32.1278 8.39943 30.7438 7.96078 29.067 7.96078C27.2083 7.96078 25.4606 8.61876 23.9656 9.67525V22.8196H23.9718Z" fill="#1D3557" />
    <path d="M43.206 6.2463C46.1558 4.34648 49.4355 3.43518 52.934 3.43518C55.9948 3.43518 58.544 3.87384 60.9113 4.75116V9.02344C58.2881 8.14612 55.8839 7.71055 53.1498 7.71055C50.8904 7.71055 49.0687 8.18628 47.6847 8.95239V11.5442L60.9082 12.8941V20.5614C57.9213 22.4612 54.6786 23.3725 51.1431 23.3725C48.1563 23.3725 45.5702 22.8968 43.2029 22.0596V17.7873C45.715 18.6276 48.0484 19.1033 50.7424 19.1033C53.0727 19.1033 54.9684 18.6647 56.4264 17.8615V15.1245L43.2029 13.7375V6.2463H43.206Z" fill="#1D3557" />
    <path d="M80.2903 20.5583C77.997 22.4921 75.5188 23.3694 73.1515 23.3694C70.2386 23.3694 67.7974 22.421 65.7938 20.5212V3.98193H70.7842V17.4537C71.9864 18.365 73.3334 18.8407 75.0102 18.8407C76.8319 18.8407 78.5796 18.1827 80.0376 17.0892V3.98193H85.028V22.8195H80.6571L80.2903 20.5583Z" fill="#1D3557" />
    <path d="M95.4095 22.8196H90.4561V3.98196H94.7899L95.1536 6.17216C97.1942 4.30941 99.5614 3.43518 102.077 3.43518V7.85265C99.6354 7.85265 97.45 8.47357 95.4095 9.67834V22.8196Z" fill="#1D3557" />
    <path d="M124.119 6.2463V14.6055H110.495V17.7441C112.242 18.6925 114.101 19.0601 116.579 19.0601C119.239 19.0601 121.715 18.6585 124.048 17.8924V22.1276C121.57 22.9308 119.058 23.3694 116.108 23.3694C112.208 23.3694 108.383 22.4211 105.689 20.5212V6.2463C108.568 4.38355 111.373 3.43518 114.906 3.43518C118.617 3.43518 121.641 4.49476 124.119 6.2463ZM110.492 12.1589H119.418V9.02035C118.142 8.10906 116.687 7.70747 114.936 7.70747C113.26 7.70747 111.768 8.14613 110.492 9.02035V12.1589Z" fill="#1D3557" />
    <path d="M138.144 14.6055L132.935 22.8195H127.399L134.904 11.2816L127.691 0H133.119L138.329 8.10591L143.464 0H148.71L141.46 11.0993L149 22.8195H143.353L138.144 14.6055Z" fill="#1D3557" />
</svg>
    